<svg xmlns="http://www.w3.org/2000/svg" viewBox="0 0 96 96"><defs><filter id="sh" x="-60%" y="-60%" width="220%" height="220%"><feGaussianBlur stdDeviation="2.6"/></filter><filter id="sh2" x="-60%" y="-60%" width="220%" height="220%"><feGaussianBlur stdDeviation="1.1"/></filter><linearGradient id="g" x1="0" y1="0" x2="0" y2="1"><stop offset="0" stop-color="#75C178"/><stop offset=".5" stop-color="#66BB6A"/><stop offset="1" stop-color="#29702D"/></linearGradient><linearGradient id="w" x1="0" y1="0" x2="0" y2="1"><stop offset="0" stop-color="#FFFFFF"/><stop offset=".5" stop-color="#FFFFFF"/><stop offset="1" stop-color="#D0DCD1"/></linearGradient></defs><ellipse cx="48" cy="90" rx="24" ry="4.6" fill="#000" opacity="0.12" filter="url(#sh)"/><ellipse cx="48" cy="89" rx="14" ry="2.8" fill="#000" opacity="0.16" filter="url(#sh2)"/><g stroke-linecap="round"><path d="M42 78V34c0-10-3-16-6-22" stroke="url(#g)" stroke-width="7" fill="none"/><path d="M50 78V28c0-10 0-18 3-24" stroke="url(#g)" stroke-width="7" fill="none"/><path d="M42 78V62M50 78V60" stroke="url(#w)" stroke-width="7"/></g><path d="M38 80h18l-2 6h-14z" fill="#FAFAFA"/><g stroke="#CFD8DC" stroke-width="1" opacity="0.7"><path d="M42 80v6M50 80v6"/></g></svg>