<svg xmlns="http://www.w3.org/2000/svg" viewBox="0 0 96 96"><defs><filter id="sh" x="-60%" y="-60%" width="220%" height="220%"><feGaussianBlur stdDeviation="2.6"/></filter><filter id="sh2" x="-60%" y="-60%" width="220%" height="220%"><feGaussianBlur stdDeviation="1.1"/></filter><radialGradient id="g" cx="45%" cy="32%" r="80%"><stop offset="0" stop-color="#69C1B9"/><stop offset=".3" stop-color="#4DB6AC"/><stop offset=".7" stop-color="#388E3C"/><stop offset="1" stop-color="#0F4423"/></radialGradient></defs><ellipse cx="48" cy="90" rx="24" ry="4.6" fill="#000" opacity="0.12" filter="url(#sh)"/><ellipse cx="48" cy="89" rx="14" ry="2.8" fill="#000" opacity="0.16" filter="url(#sh2)"/><path d="M48 84C32 80 24 62 27 46C30 34 40 28 48 32C56 28 66 34 69 46C72 62 64 80 48 84Z" fill="url(#g)"/><g fill="url(#g)"><circle cx="30" cy="44" r="6"/><circle cx="38" cy="34" r="6"/><circle cx="48" cy="30" r="6"/><circle cx="58" cy="34" r="6"/><circle cx="66" cy="44" r="6"/><circle cx="25" cy="56" r="5"/><circle cx="71" cy="56" r="5"/></g><g stroke="#0F3D24" stroke-width="1.4" opacity="0.5" fill="none"><path d="M48 82V36"/><path d="M48 56q-10-3-16-12M48 56q10-3 16-12M48 70q-8-2-13-8M48 70q8-2 13-8"/></g><g transform="rotate(-20 40 46)"><ellipse cx="40" cy="46" rx="6" ry="4" fill="#fff" opacity="0.14"/><ellipse cx="38.9" cy="44.9" rx="2.4" ry="1.6" fill="#fff" opacity="0.33"/></g></svg>