<svg xmlns="http://www.w3.org/2000/svg" viewBox="0 0 96 96"><defs><filter id="sh" x="-60%" y="-60%" width="220%" height="220%"><feGaussianBlur stdDeviation="2.6"/></filter><filter id="sh2" x="-60%" y="-60%" width="220%" height="220%"><feGaussianBlur stdDeviation="1.1"/></filter><linearGradient id="g" x1="0" y1="0" x2="1" y2="1"><stop offset="0" stop-color="#A5D174"/><stop offset=".5" stop-color="#9CCC65"/><stop offset="1" stop-color="#5D8F32"/></linearGradient></defs><ellipse cx="48" cy="90" rx="24" ry="4.6" fill="#000" opacity="0.12" filter="url(#sh)"/><ellipse cx="48" cy="89" rx="14" ry="2.8" fill="#000" opacity="0.16" filter="url(#sh2)"/><g transform="rotate(28 48 48)"><path d="M40 18c12 0 18 12 18 30s-6 30-18 30c-5 0-8-4-8-9 4 1 7-2 7-6-6-3-9-9-9-15s3-12 9-15c0-4-3-7-7-6 0-5 3-9 8-9z" fill="url(#g)"/><g fill="#8D6E63"><ellipse cx="44" cy="40" rx="5" ry="7"/><ellipse cx="46" cy="58" rx="5" ry="7"/></g><g fill="#D7CCC8"><ellipse cx="43" cy="38" rx="2" ry="3"/><ellipse cx="45" cy="56" rx="2" ry="3"/></g></g></svg>