<svg xmlns="http://www.w3.org/2000/svg" viewBox="0 0 96 96"><defs><filter id="sh" x="-60%" y="-60%" width="220%" height="220%"><feGaussianBlur stdDeviation="2.6"/></filter><filter id="sh2" x="-60%" y="-60%" width="220%" height="220%"><feGaussianBlur stdDeviation="1.1"/></filter><linearGradient id="g" x1="0" y1="0" x2="0" y2="1"><stop offset="0" stop-color="#89BA54"/><stop offset=".5" stop-color="#7CB342"/><stop offset="1" stop-color="#2D5E1B"/></linearGradient><linearGradient id="w" x1="0" y1="0" x2="0" y2="1"><stop offset="0" stop-color="#F2F8EB"/><stop offset=".5" stop-color="#F1F8E9"/><stop offset="1" stop-color="#B1CA94"/></linearGradient></defs><ellipse cx="48" cy="90" rx="24" ry="4.6" fill="#000" opacity="0.12" filter="url(#sh)"/><ellipse cx="48" cy="89" rx="14" ry="2.8" fill="#000" opacity="0.16" filter="url(#sh2)"/><g stroke-linecap="round"><path d="M40 80V40c0-8-2-12-4-16" stroke="url(#g)" stroke-width="6" fill="none"/><path d="M48 80V36c0-8 0-14 2-18" stroke="url(#g)" stroke-width="6" fill="none"/><path d="M56 80V40c0-8 2-12 4-16" stroke="url(#g)" stroke-width="6" fill="none"/><path d="M40 80V72M48 80V70M56 80V72" stroke="url(#w)" stroke-width="6"/></g><ellipse cx="48" cy="82" rx="11" ry="5" fill="#F1F8E9"/></svg>