<svg xmlns="http://www.w3.org/2000/svg" viewBox="0 0 96 96"><defs><filter id="sh" x="-60%" y="-60%" width="220%" height="220%"><feGaussianBlur stdDeviation="2.6"/></filter><filter id="sh2" x="-60%" y="-60%" width="220%" height="220%"><feGaussianBlur stdDeviation="1.1"/></filter><linearGradient id="g" x1="0" y1="0" x2="1" y2="1"><stop offset="0" stop-color="#669643"/><stop offset=".5" stop-color="#558B2F"/><stop offset="1" stop-color="#18541C"/></linearGradient></defs><ellipse cx="48" cy="90" rx="24" ry="4.6" fill="#000" opacity="0.12" filter="url(#sh)"/><ellipse cx="48" cy="89" rx="14" ry="2.8" fill="#000" opacity="0.16" filter="url(#sh2)"/><g transform="rotate(35 48 48)"><rect x="34" y="16" width="28" height="62" rx="14" fill="url(#g)"/><rect x="38" y="20" width="8" height="52" rx="4" fill="#fff" opacity="0.18"/><g fill="#33691E" opacity="0.5"><rect x="44" y="22" width="2" height="50" rx="1"/><rect x="50" y="22" width="2" height="50" rx="1"/></g><path d="M48 14c-3-2-6-1-7 2 3 0 5 1 7 2 2-1 4-2 7-2-1-3-4-4-7-2z" fill="#FBC02D"/></g></svg>